<svg width="40" height="40" viewBox="0 0 40 40" fill="none" xmlns="http://www.w3.org/2000/svg">
<path d="M40 20C40 31.0457 31.0457 40 20 40C8.9543 40 0 31.0457 0 20C0 8.9543 8.9543 0 20 0C31.0457 0 40 8.9543 40 20Z" fill="#111111" fill-opacity="0.15"/>
<path fill-rule="evenodd" clip-rule="evenodd" d="M33 20C33 27.1796 27.1796 33 20 33C12.8203 33 7 27.1796 7 20C7 12.8203 12.8203 7 20 7C27.1796 7 33 12.8203 33 20ZM20 27.475C20.5385 27.475 20.975 27.0385 20.975 26.5V18.7C20.975 18.1615 20.5385 17.725 20 17.725C19.4615 17.725 19.025 18.1615 19.025 18.7V26.5C19.025 27.0385 19.4615 27.475 20 27.475ZM20 13.5C20.718 13.5 21.3 14.082 21.3 14.8C21.3 15.518 20.718 16.1 20 16.1C19.282 16.1 18.7 15.518 18.7 14.8C18.7 14.082 19.282 13.5 20 13.5Z" fill="white"/>
<path d="M40 20C40 31.0457 31.0457 40 20 40C8.9543 40 0 31.0457 0 20C0 8.9543 8.9543 0 20 0C31.0457 0 40 8.9543 40 20ZM1.4 20C1.4 30.2725 9.7275 38.6 20 38.6C30.2725 38.6 38.6 30.2725 38.6 20C38.6 9.7275 30.2725 1.4 20 1.4C9.7275 1.4 1.4 9.7275 1.4 20Z" fill="black" fill-opacity="0.15"/>
</svg>
